<svg width="64" height="72" viewBox="0 0 64 72" fill="none" xmlns="http://www.w3.org/2000/svg">
<path d="M63.8251 18.271V43.694C63.8251 53.7844 55.4047 61.9651 45.0187 61.9651H43.1165L33.4026 71.3963C33.0222 71.7659 32.4959 72 31.9126 72C31.3736 72 30.8854 71.809 30.5113 71.4887L30.3464 71.3285L30.3401 71.3224L20.7086 61.9651H18.8001C8.4204 61.9651 0 53.7844 0 43.694V18.271C0 8.1807 8.4204 0 18.8064 0H45.0187C55.4047 0 63.8251 8.1807 63.8251 18.271Z" fill="#15C3D6"/>
<path d="M21.44 26.958C21.548 26.706 21.704 26.52 21.908 26.4C22.112 26.268 22.34 26.202 22.592 26.202C22.952 26.202 23.276 26.322 23.564 26.562C23.852 26.802 23.996 27.096 23.996 27.444C23.996 27.624 23.954 27.804 23.87 27.984L19.01 38.244C18.878 38.52 18.68 38.736 18.416 38.892C18.152 39.036 17.864 39.108 17.552 39.108C17.24 39.108 16.952 39.036 16.688 38.892C16.424 38.736 16.226 38.52 16.094 38.244L11.234 27.984C11.15 27.816 11.108 27.642 11.108 27.462C11.108 27.102 11.258 26.802 11.558 26.562C11.858 26.322 12.194 26.202 12.566 26.202C12.818 26.202 13.046 26.268 13.25 26.4C13.466 26.52 13.628 26.706 13.736 26.958L17.588 35.382L21.44 26.958ZM28.3154 39.144C27.3794 39.144 26.5574 38.958 25.8494 38.586C25.1414 38.202 24.5954 37.668 24.2114 36.984C23.8274 36.288 23.6354 35.472 23.6354 34.536C23.6354 33.6 23.8274 32.79 24.2114 32.106C24.5954 31.41 25.1414 30.876 25.8494 30.504C26.5574 30.132 27.3794 29.946 28.3154 29.946C29.2514 29.946 30.0734 30.132 30.7814 30.504C31.4894 30.876 32.0354 31.41 32.4194 32.106C32.8034 32.79 32.9954 33.6 32.9954 34.536C32.9954 35.472 32.8034 36.288 32.4194 36.984C32.0354 37.668 31.4894 38.202 30.7814 38.586C30.0734 38.958 29.2514 39.144 28.3154 39.144ZM28.3154 37.074C29.6354 37.074 30.2954 36.228 30.2954 34.536C30.2954 33.684 30.1214 33.048 29.7734 32.628C29.4374 32.208 28.9514 31.998 28.3154 31.998C26.9954 31.998 26.3354 32.844 26.3354 34.536C26.3354 36.228 26.9954 37.074 28.3154 37.074ZM38.7355 39.144C37.8235 39.144 37.0255 38.958 36.3415 38.586C35.6575 38.214 35.1295 37.686 34.7575 37.002C34.3975 36.318 34.2175 35.514 34.2175 34.59C34.2175 33.666 34.4095 32.856 34.7935 32.16C35.1895 31.452 35.7415 30.906 36.4495 30.522C37.1575 30.138 37.9735 29.946 38.8975 29.946C39.3775 29.946 39.8575 30.012 40.3375 30.144C40.8295 30.276 41.2675 30.462 41.6515 30.702C42.0235 30.93 42.2095 31.266 42.2095 31.71C42.2095 32.022 42.1375 32.28 41.9935 32.484C41.8495 32.676 41.6575 32.772 41.4175 32.772C41.2615 32.772 41.1115 32.748 40.9675 32.7C40.8355 32.64 40.6555 32.556 40.4275 32.448C40.1755 32.316 39.9475 32.214 39.7435 32.142C39.5515 32.07 39.3295 32.034 39.0775 32.034C38.4055 32.034 37.8895 32.25 37.5295 32.682C37.1815 33.102 37.0075 33.72 37.0075 34.536C37.0075 35.352 37.1815 35.976 37.5295 36.408C37.8895 36.84 38.4055 37.056 39.0775 37.056C39.3295 37.056 39.5515 37.026 39.7435 36.966C39.9355 36.894 40.1695 36.786 40.4455 36.642C40.6735 36.534 40.8535 36.456 40.9855 36.408C41.1175 36.348 41.2615 36.318 41.4175 36.318C41.6455 36.318 41.8315 36.42 41.9755 36.624C42.1315 36.828 42.2095 37.086 42.2095 37.398C42.2095 37.842 42.0235 38.172 41.6515 38.388C41.2675 38.628 40.8235 38.814 40.3195 38.946C39.8155 39.078 39.2875 39.144 38.7355 39.144ZM50.636 36.372C50.876 36.372 51.068 36.468 51.212 36.66C51.368 36.852 51.446 37.098 51.446 37.398C51.446 37.602 51.386 37.794 51.266 37.974C51.146 38.142 50.978 38.286 50.762 38.406C50.354 38.622 49.88 38.802 49.34 38.946C48.8 39.078 48.302 39.144 47.846 39.144C46.886 39.144 46.046 38.958 45.326 38.586C44.618 38.214 44.072 37.686 43.688 37.002C43.304 36.306 43.112 35.49 43.112 34.554C43.112 33.654 43.298 32.856 43.67 32.16C44.042 31.464 44.558 30.924 45.218 30.54C45.878 30.144 46.628 29.946 47.468 29.946C48.272 29.946 48.974 30.126 49.574 30.486C50.186 30.834 50.66 31.338 50.996 31.998C51.332 32.646 51.5 33.408 51.5 34.284C51.5 34.548 51.434 34.752 51.302 34.896C51.182 35.028 51.008 35.094 50.78 35.094H45.74C45.824 35.802 46.04 36.318 46.388 36.642C46.736 36.954 47.234 37.11 47.882 37.11C48.23 37.11 48.542 37.068 48.818 36.984C49.094 36.9 49.4 36.786 49.736 36.642C49.904 36.57 50.066 36.51 50.222 36.462C50.378 36.402 50.516 36.372 50.636 36.372ZM47.54 31.818C47.024 31.818 46.61 31.986 46.298 32.322C45.986 32.646 45.8 33.12 45.74 33.744H49.214C49.178 33.108 49.016 32.628 48.728 32.304C48.452 31.98 48.056 31.818 47.54 31.818ZM46.28 28.686C46.088 28.962 45.848 29.1 45.56 29.1C45.332 29.1 45.134 29.022 44.966 28.866C44.798 28.71 44.714 28.524 44.714 28.308C44.714 28.116 44.78 27.936 44.912 27.768L46.424 25.824C46.592 25.62 46.748 25.476 46.892 25.392C47.048 25.296 47.24 25.248 47.468 25.248C47.696 25.248 47.882 25.296 48.026 25.392C48.182 25.476 48.344 25.626 48.512 25.842L50.024 27.768C50.156 27.936 50.222 28.11 50.222 28.29C50.222 28.506 50.132 28.698 49.952 28.866C49.784 29.022 49.592 29.1 49.376 29.1C49.088 29.1 48.848 28.962 48.656 28.686L47.468 26.922L46.28 28.686Z" fill="white"/>
<path d="M21.44 26.958L21.7129 27.0828L21.7157 27.0762L21.44 26.958ZM21.908 26.4L22.0602 26.6588L22.071 26.6519L21.908 26.4ZM23.564 26.562L23.7561 26.3315L23.7561 26.3315L23.564 26.562ZM23.87 27.984L24.1411 28.1124L24.1419 28.1109L23.87 27.984ZM19.01 38.244L19.2806 38.3734L19.2811 38.3724L19.01 38.244ZM18.416 38.892L18.5597 39.1555L18.5686 39.1503L18.416 38.892ZM16.688 38.892L16.5353 39.1504L16.5443 39.1554L16.688 38.892ZM16.094 38.244L15.8229 38.3724L15.8234 38.3734L16.094 38.244ZM11.234 27.984L11.5052 27.8555L11.5023 27.8498L11.234 27.984ZM11.558 26.562L11.3706 26.3277L11.3706 26.3277L11.558 26.562ZM13.25 26.4L13.087 26.6519L13.0955 26.6573L13.1043 26.6622L13.25 26.4ZM13.736 26.958L13.4602 27.0762L13.4632 27.0828L13.736 26.958ZM17.588 35.382L17.3152 35.5068L17.588 36.1034L17.8608 35.5068L17.588 35.382ZM21.7157 27.0762C21.8027 26.8733 21.9196 26.7412 22.0601 26.6586L21.7559 26.1414C21.4884 26.2988 21.2933 26.5387 21.1643 26.8398L21.7157 27.0762ZM22.071 26.6519C22.2246 26.5525 22.3956 26.502 22.592 26.502V25.902C22.2844 25.902 21.9994 25.9835 21.745 26.1481L22.071 26.6519ZM22.592 26.502C22.8787 26.502 23.1354 26.5954 23.3719 26.7925L23.7561 26.3315C23.4166 26.0486 23.0253 25.902 22.592 25.902V26.502ZM23.3719 26.7925C23.5976 26.9805 23.696 27.1926 23.696 27.444H24.296C24.296 26.9994 24.1064 26.6235 23.7561 26.3315L23.3719 26.7925ZM23.696 27.444C23.696 27.5758 23.6655 27.7127 23.5981 27.8571L24.1419 28.1109C24.2425 27.8953 24.296 27.6722 24.296 27.444H23.696ZM23.5989 27.8556L18.7389 38.1156L19.2811 38.3724L24.1411 28.1124L23.5989 27.8556ZM18.7394 38.1146C18.6331 38.3367 18.4763 38.5079 18.2634 38.6337L18.5686 39.1503C18.8837 38.9641 19.1229 38.7033 19.2806 38.3734L18.7394 38.1146ZM18.2723 38.6286C18.0541 38.7477 17.8158 38.808 17.552 38.808V39.408C17.9122 39.408 18.2499 39.3243 18.5597 39.1554L18.2723 38.6286ZM17.552 38.808C17.2882 38.808 17.0499 38.7477 16.8317 38.6286L16.5443 39.1554C16.8541 39.3243 17.1918 39.408 17.552 39.408V38.808ZM16.8406 38.6337C16.6277 38.5079 16.4709 38.3367 16.3646 38.1146L15.8234 38.3734C15.9811 38.7033 16.2203 38.9641 16.5354 39.1503L16.8406 38.6337ZM16.3651 38.1156L11.5051 27.8556L10.9629 28.1124L15.8229 38.3724L16.3651 38.1156ZM11.5023 27.8498C11.4382 27.7216 11.408 27.5934 11.408 27.462H10.808C10.808 27.6906 10.8618 27.9104 10.9657 28.1182L11.5023 27.8498ZM11.408 27.462C11.408 27.2 11.5111 26.9837 11.7454 26.7963L11.3706 26.3277C11.0049 26.6203 10.808 27.004 10.808 27.462H11.408ZM11.7454 26.7963C11.9941 26.5973 12.2645 26.502 12.566 26.502V25.902C12.1235 25.902 11.7219 26.0467 11.3706 26.3277L11.7454 26.7963ZM12.566 26.502C12.7624 26.502 12.9334 26.5525 13.087 26.6519L13.413 26.1481C13.1586 25.9835 12.8736 25.902 12.566 25.902V26.502ZM13.1043 26.6622C13.2558 26.7464 13.3754 26.8782 13.4603 27.0762L14.0117 26.8398C13.8806 26.5338 13.6762 26.2936 13.3957 26.1378L13.1043 26.6622ZM13.4632 27.0828L17.3152 35.5068L17.8608 35.2572L14.0088 26.8332L13.4632 27.0828ZM17.8608 35.5068L21.7128 27.0828L21.1672 26.8332L17.3152 35.2572L17.8608 35.5068ZM25.8494 38.586L25.7064 38.8497L25.7099 38.8516L25.8494 38.586ZM24.2114 36.984L23.9488 37.1289L23.9498 37.1309L24.2114 36.984ZM24.2114 32.106L24.473 32.2529L24.4741 32.2509L24.2114 32.106ZM25.8494 30.504L25.7099 30.2384L25.7099 30.2384L25.8494 30.504ZM30.7814 30.504L30.921 30.2384L30.921 30.2384L30.7814 30.504ZM32.4194 32.106L32.1568 32.2509L32.1578 32.2529L32.4194 32.106ZM32.4194 36.984L32.681 37.1309L32.6821 37.1289L32.4194 36.984ZM30.7814 38.586L30.921 38.8516L30.9245 38.8497L30.7814 38.586ZM29.7734 32.628L29.5391 32.8154L29.5424 32.8194L29.7734 32.628ZM28.3154 38.844C27.4198 38.844 26.6472 38.6663 25.989 38.3204L25.7099 38.8516C26.4677 39.2497 27.3391 39.444 28.3154 39.444V38.844ZM25.9925 38.3223C25.3328 37.9645 24.8286 37.4704 24.473 36.8371L23.9498 37.1309C24.3623 37.8656 24.9501 38.4395 25.7064 38.8497L25.9925 38.3223ZM24.4741 36.8391C24.1186 36.1947 23.9354 35.4303 23.9354 34.536H23.3354C23.3354 35.5137 23.5363 36.3813 23.9488 37.1289L24.4741 36.8391ZM23.9354 34.536C23.9354 33.6415 24.1187 32.8841 24.473 32.2529L23.9498 31.9591C23.5362 32.6959 23.3354 33.5585 23.3354 34.536H23.9354ZM24.4741 32.2509C24.8296 31.6067 25.3326 31.1144 25.989 30.7696L25.7099 30.2384C24.9503 30.6376 24.3613 31.2133 23.9488 31.9611L24.4741 32.2509ZM25.989 30.7696C26.6472 30.4237 27.4198 30.246 28.3154 30.246V29.646C27.3391 29.646 26.4677 29.8403 25.7099 30.2384L25.989 30.7696ZM28.3154 30.246C29.2111 30.246 29.9837 30.4237 30.6419 30.7696L30.921 30.2384C30.1632 29.8403 29.2918 29.646 28.3154 29.646V30.246ZM30.6419 30.7696C31.2983 31.1144 31.8013 31.6067 32.1568 32.2509L32.6821 31.9611C32.2696 31.2133 31.6806 30.6376 30.921 30.2384L30.6419 30.7696ZM32.1578 32.2529C32.5122 32.8841 32.6954 33.6415 32.6954 34.536H33.2954C33.2954 33.5585 33.0947 32.6959 32.681 31.9591L32.1578 32.2529ZM32.6954 34.536C32.6954 35.4303 32.5123 36.1947 32.1568 36.8391L32.6821 37.1289C33.0946 36.3813 33.2954 35.5137 33.2954 34.536H32.6954ZM32.1578 36.8371C31.8023 37.4704 31.2981 37.9645 30.6384 38.3223L30.9245 38.8497C31.6808 38.4395 32.2686 37.8656 32.681 37.1309L32.1578 36.8371ZM30.6419 38.3204C29.9837 38.6663 29.2111 38.844 28.3154 38.844V39.444C29.2918 39.444 30.1632 39.2497 30.921 38.8516L30.6419 38.3204ZM28.3154 37.374C29.0443 37.374 29.6371 37.1367 30.037 36.624C30.4258 36.1256 30.5954 35.4128 30.5954 34.536H29.9954C29.9954 35.3512 29.835 35.9074 29.5639 36.255C29.3038 36.5883 28.9066 36.774 28.3154 36.774V37.374ZM30.5954 34.536C30.5954 33.6513 30.4161 32.9334 30.0044 32.4366L29.5424 32.8194C29.8268 33.1626 29.9954 33.7167 29.9954 34.536H30.5954ZM30.0077 32.4406C29.6041 31.9361 29.024 31.698 28.3154 31.698V32.298C28.8789 32.298 29.2708 32.4799 29.5392 32.8154L30.0077 32.4406ZM28.3154 31.698C27.5866 31.698 26.9938 31.9353 26.5939 32.448C26.205 32.9464 26.0354 33.6592 26.0354 34.536H26.6354C26.6354 33.7208 26.7958 33.1646 27.067 32.817C27.3271 32.4837 27.7243 32.298 28.3154 32.298V31.698ZM26.0354 34.536C26.0354 35.4128 26.205 36.1256 26.5939 36.624C26.9938 37.1367 27.5866 37.374 28.3154 37.374V36.774C27.7243 36.774 27.3271 36.5883 27.067 36.255C26.7958 35.9074 26.6354 35.3512 26.6354 34.536H26.0354ZM36.3415 38.586L36.4848 38.3225L36.4848 38.3225L36.3415 38.586ZM34.7575 37.002L34.492 37.1417L34.4939 37.1453L34.7575 37.002ZM34.7935 32.16L34.5316 32.0136L34.5308 32.0151L34.7935 32.16ZM40.3375 30.144L40.2579 30.4333L40.2597 30.4338L40.3375 30.144ZM41.6515 30.702L41.4925 30.9564L41.4947 30.9578L41.6515 30.702ZM41.9935 32.484L42.2336 32.6641L42.2386 32.657L41.9935 32.484ZM40.9675 32.7L40.8433 32.9731L40.8577 32.9796L40.8726 32.9846L40.9675 32.7ZM40.4275 32.448L40.2882 32.714L40.299 32.7191L40.4275 32.448ZM39.7435 32.142L39.6381 32.423L39.6436 32.4249L39.7435 32.142ZM37.5295 32.682L37.299 32.4899L37.2985 32.4906L37.5295 32.682ZM37.5295 36.408L37.2958 36.5962L37.299 36.6001L37.5295 36.408ZM39.7435 36.966L39.833 37.2523L39.841 37.2498L39.8488 37.2469L39.7435 36.966ZM40.4455 36.642L40.3169 36.3707L40.3067 36.376L40.4455 36.642ZM40.9855 36.408L41.088 36.6899L41.099 36.6859L41.1096 36.6811L40.9855 36.408ZM41.9755 36.624L41.7302 36.7971L41.7372 36.8062L41.9755 36.624ZM41.6515 38.388L41.5007 38.1284L41.4925 38.1336L41.6515 38.388ZM38.7355 38.844C37.8649 38.844 37.1178 38.6667 36.4848 38.3225L36.1981 38.8495C36.9331 39.2493 37.782 39.444 38.7355 39.444V38.844ZM36.4848 38.3225C35.8516 37.9781 35.3654 37.4918 35.021 36.8587L34.4939 37.1453C34.8936 37.8802 35.4633 38.4499 36.1981 38.8495L36.4848 38.3225ZM35.0229 36.8623C34.6897 36.229 34.5175 35.4748 34.5175 34.59H33.9175C33.9175 35.5532 34.1053 36.407 34.492 37.1417L35.0229 36.8623ZM34.5175 34.59C34.5175 33.7084 34.7003 32.9498 35.0561 32.3049L34.5308 32.0151C34.1186 32.7622 33.9175 33.6236 33.9175 34.59H34.5175ZM35.0553 32.3064C35.4238 31.6476 35.9348 31.1424 36.5925 30.7857L36.3064 30.2583C35.5482 30.6696 34.9551 31.2564 34.5316 32.0136L35.0553 32.3064ZM36.5925 30.7857C37.2505 30.4288 38.016 30.246 38.8975 30.246V29.646C37.9309 29.646 37.0644 29.8472 36.3064 30.2583L36.5925 30.7857ZM38.8975 30.246C39.3496 30.246 39.8029 30.3081 40.2579 30.4333L40.417 29.8547C39.9121 29.7159 39.4053 29.646 38.8975 29.646V30.246ZM40.2597 30.4338C40.7266 30.559 41.1366 30.734 41.4925 30.9564L41.8105 30.4476C41.3984 30.19 40.9324 29.993 40.4152 29.8542L40.2597 30.4338ZM41.4947 30.9578C41.7758 31.1301 41.9095 31.3681 41.9095 31.71H42.5095C42.5095 31.1639 42.2711 30.7299 41.8082 30.4462L41.4947 30.9578ZM41.9095 31.71C41.9095 31.9756 41.8486 32.169 41.7484 32.311L42.2386 32.657C42.4263 32.391 42.5095 32.0684 42.5095 31.71H41.9095ZM41.7535 32.304C41.6661 32.4205 41.563 32.472 41.4175 32.472V33.072C41.7519 33.072 42.0328 32.9315 42.2335 32.664L41.7535 32.304ZM41.4175 32.472C41.2928 32.472 41.1749 32.4529 41.0623 32.4154L40.8726 32.9846C41.048 33.0431 41.2301 33.072 41.4175 33.072V32.472ZM41.0916 32.4269C40.9617 32.3678 40.7833 32.2846 40.5559 32.1769L40.299 32.7191C40.5276 32.8274 40.7092 32.9122 40.8433 32.9731L41.0916 32.4269ZM40.5667 32.1823C40.3057 32.0455 40.0643 31.9371 39.8433 31.8591L39.6436 32.4249C39.8307 32.4909 40.0453 32.5865 40.2883 32.7137L40.5667 32.1823ZM39.8488 31.8611C39.6164 31.7739 39.3575 31.734 39.0775 31.734V32.334C39.3015 32.334 39.4865 32.3661 39.6381 32.4229L39.8488 31.8611ZM39.0775 31.734C38.3356 31.734 37.7272 31.9761 37.299 32.4899L37.7599 32.8741C38.0517 32.5239 38.4753 32.334 39.0775 32.334V31.734ZM37.2985 32.4906C36.8884 32.9855 36.7075 33.6835 36.7075 34.536H37.3075C37.3075 33.7565 37.4745 33.2185 37.7605 32.8734L37.2985 32.4906ZM36.7075 34.536C36.7075 35.3893 36.8887 36.0908 37.2958 36.5962L37.7631 36.2198C37.4742 35.8612 37.3075 35.3147 37.3075 34.536H36.7075ZM37.299 36.6001C37.7272 37.1139 38.3356 37.356 39.0775 37.356V36.756C38.4753 36.756 38.0517 36.5661 37.7599 36.2159L37.299 36.6001ZM39.0775 37.356C39.3525 37.356 39.6057 37.3233 39.833 37.2523L39.654 36.6797C39.4972 36.7287 39.3064 36.756 39.0775 36.756V37.356ZM39.8488 37.2469C40.0565 37.169 40.3023 37.0551 40.5842 36.908L40.3067 36.376C40.0366 36.5169 39.8145 36.619 39.6381 36.6851L39.8488 37.2469ZM40.5739 36.9131C40.7989 36.8065 40.9691 36.7332 41.088 36.6899L40.8829 36.1261C40.7378 36.1788 40.548 36.2615 40.317 36.3709L40.5739 36.9131ZM41.1096 36.6811C41.1997 36.6401 41.301 36.618 41.4175 36.618V36.018C41.2219 36.018 41.0352 36.0559 40.8613 36.1349L41.1096 36.6811ZM41.4175 36.618C41.5376 36.618 41.6363 36.6638 41.7304 36.797L42.2206 36.451C42.0266 36.1762 41.7533 36.018 41.4175 36.018V36.618ZM41.7372 36.8062C41.8451 36.9474 41.9095 37.1373 41.9095 37.398H42.5095C42.5095 37.0347 42.4178 36.7086 42.2138 36.4418L41.7372 36.8062ZM41.9095 37.398C41.9095 37.7393 41.7768 37.9683 41.5008 38.1286L41.8021 38.6474C42.2702 38.3757 42.5095 37.9447 42.5095 37.398H41.9095ZM41.4925 38.1336C41.1377 38.3553 40.7225 38.5303 40.2435 38.6558L40.3955 39.2362C40.9245 39.0977 41.3972 38.9007 41.8105 38.6424L41.4925 38.1336ZM40.2435 38.6558C39.7657 38.7809 39.2633 38.844 38.7355 38.844V39.444C39.3116 39.444 39.8652 39.3751 40.3955 39.2362L40.2435 38.6558ZM51.212 36.66L50.9718 36.8401L50.9792 36.8492L51.212 36.66ZM51.266 37.974L51.5102 38.1485L51.5156 38.1404L51.266 37.974ZM50.762 38.406L50.9024 38.6712L50.9077 38.6682L50.762 38.406ZM49.34 38.946L49.4113 39.2375L49.4173 39.2359L49.34 38.946ZM45.326 38.586L45.1865 38.8516L45.1883 38.8525L45.326 38.586ZM43.688 37.002L43.4253 37.1469L43.4264 37.1489L43.688 37.002ZM43.67 32.16L43.9346 32.3014L43.9346 32.3014L43.67 32.16ZM45.218 30.54L45.3689 30.7993L45.3723 30.7972L45.218 30.54ZM49.574 30.486L49.4196 30.7433L49.4257 30.7468L49.574 30.486ZM50.996 31.998L50.7286 32.1341L50.7297 32.1361L50.996 31.998ZM51.302 34.896L51.0809 34.6933L51.08 34.6942L51.302 34.896ZM45.74 35.094V34.794H45.4023L45.4421 35.1293L45.74 35.094ZM46.388 36.642L46.1835 36.8616L46.1877 36.8654L46.388 36.642ZM49.736 36.642L49.6178 36.3663L49.6178 36.3663L49.736 36.642ZM50.222 36.462L50.3102 36.7487L50.3201 36.7457L50.3297 36.742L50.222 36.462ZM46.298 32.322L46.5141 32.5301L46.5178 32.5261L46.298 32.322ZM45.74 33.744L45.4414 33.7153L45.4098 34.044H45.74V33.744ZM49.214 33.744V34.044H49.5315L49.5135 33.727L49.214 33.744ZM48.728 32.304L48.4996 32.4986L48.5038 32.5033L48.728 32.304ZM46.28 28.686L46.5263 28.8573L46.5288 28.8536L46.28 28.686ZM44.966 28.866L45.1701 28.6462L45.1701 28.6462L44.966 28.866ZM44.912 27.768L45.1479 27.9533L45.1488 27.9522L44.912 27.768ZM46.424 25.824L46.1923 25.6332L46.1872 25.6398L46.424 25.824ZM46.892 25.392L47.0432 25.6512L47.0492 25.6475L46.892 25.392ZM48.026 25.392L47.8596 25.6416L47.8713 25.6494L47.8838 25.6561L48.026 25.392ZM48.512 25.842L48.2752 26.0262L48.276 26.0272L48.512 25.842ZM50.024 27.768L49.788 27.9532L49.7881 27.9533L50.024 27.768ZM49.952 28.866L50.1561 29.0858L50.1567 29.0853L49.952 28.866ZM48.656 28.686L48.4071 28.8536L48.4097 28.8573L48.656 28.686ZM47.468 26.922L47.7168 26.7544L47.468 26.3849L47.2192 26.7544L47.468 26.922ZM50.636 36.672C50.7816 36.672 50.8847 36.7235 50.972 36.84L51.452 36.48C51.2513 36.2125 50.9704 36.072 50.636 36.072V36.672ZM50.9792 36.8492C51.083 36.977 51.146 37.1517 51.146 37.398H51.746C51.746 37.0443 51.653 36.727 51.4448 36.4708L50.9792 36.8492ZM51.146 37.398C51.146 37.5391 51.1056 37.6737 51.0164 37.8076L51.5156 38.1404C51.6664 37.9143 51.746 37.6649 51.746 37.398H51.146ZM51.0219 37.7996C50.9324 37.925 50.8009 38.0412 50.6163 38.1438L50.9077 38.6682C51.1551 38.5308 51.3596 38.359 51.5101 38.1484L51.0219 37.7996ZM50.6216 38.1409C50.2373 38.3443 49.7852 38.5168 49.2627 38.6561L49.4173 39.2359C49.9748 39.0872 50.4707 38.8997 50.9024 38.6711L50.6216 38.1409ZM49.2688 38.6546C48.7472 38.7821 48.2734 38.844 47.846 38.844V39.444C48.3306 39.444 48.8528 39.3739 49.4112 39.2374L49.2688 38.6546ZM47.846 38.844C46.9251 38.844 46.1339 38.6658 45.4637 38.3195L45.1883 38.8525C45.9581 39.2502 46.8469 39.444 47.846 39.444V38.844ZM45.4655 38.3204C44.8078 37.9748 44.3046 37.4876 43.9496 36.8551L43.4264 37.1489C43.8394 37.8844 44.4282 38.4532 45.1865 38.8516L45.4655 38.3204ZM43.9507 36.8571C43.5952 36.2127 43.412 35.4483 43.412 34.554H42.812C42.812 35.5317 43.0128 36.3993 43.4253 37.1469L43.9507 36.8571ZM43.412 34.554C43.412 33.6963 43.5889 32.9481 43.9346 32.3014L43.4054 32.0186C43.0071 32.7639 42.812 33.6117 42.812 34.554H43.412ZM43.9346 32.3014C44.2813 31.6528 44.7586 31.1543 45.3689 30.7993L45.0671 30.2807C44.3574 30.6937 43.8027 31.2752 43.4054 32.0186L43.9346 32.3014ZM45.3723 30.7972C45.9815 30.4317 46.6772 30.246 47.468 30.246V29.646C46.5788 29.646 45.7745 29.8562 45.0637 30.2828L45.3723 30.7972ZM47.468 30.246C48.2259 30.246 48.8729 30.4152 49.4197 30.7432L49.7283 30.2288C49.0751 29.8368 48.3181 29.646 47.468 29.646V30.246ZM49.4257 30.7468C49.984 31.0642 50.4178 31.5236 50.7287 32.1341L51.2633 31.8619C50.9022 31.1524 50.388 30.6038 49.7223 30.2252L49.4257 30.7468ZM50.7297 32.1361C51.0395 32.7337 51.2 33.4465 51.2 34.284H51.8C51.8 33.3695 51.6245 32.5583 51.2623 31.8599L50.7297 32.1361ZM51.2 34.284C51.2 34.4997 51.1466 34.6216 51.0809 34.6933L51.5231 35.0987C51.7214 34.8824 51.8 34.5963 51.8 34.284H51.2ZM51.08 34.6942C51.0318 34.7473 50.9485 34.794 50.78 34.794V35.394C51.0675 35.394 51.3322 35.3087 51.524 35.0978L51.08 34.6942ZM50.78 34.794H45.74V35.394H50.78V34.794ZM45.4421 35.1293C45.5304 35.8739 45.7631 36.4701 46.1836 36.8616L46.5924 36.4224C46.3169 36.1659 46.1176 35.7301 46.0379 35.0587L45.4421 35.1293ZM46.1877 36.8654C46.6089 37.243 47.1887 37.41 47.882 37.41V36.81C47.2793 36.81 46.8631 36.665 46.5883 36.4186L46.1877 36.8654ZM47.882 37.41C48.2537 37.41 48.5959 37.3652 48.9053 37.271L48.7307 36.697C48.4881 36.7708 48.2063 36.81 47.882 36.81V37.41ZM48.9053 37.271C49.1941 37.1831 49.5106 37.065 49.8542 36.9177L49.6178 36.3663C49.2894 36.507 48.9939 36.6169 48.7307 36.697L48.9053 37.271ZM49.8542 36.9177C50.0135 36.8494 50.1655 36.7933 50.3102 36.7487L50.1338 36.1753C49.9665 36.2267 49.7945 36.2906 49.6178 36.3663L49.8542 36.9177ZM50.3297 36.742C50.4638 36.6904 50.5642 36.672 50.636 36.672V36.072C50.4678 36.072 50.2922 36.1136 50.1143 36.182L50.3297 36.742ZM47.54 31.518C46.9521 31.518 46.4543 31.7128 46.0782 32.1179L46.5178 32.5261C46.7657 32.2592 47.0959 32.118 47.54 32.118V31.518ZM46.0819 32.1139C45.7075 32.5027 45.5053 33.05 45.4414 33.7153L46.0386 33.7727C46.0947 33.19 46.2645 32.7893 46.5141 32.5301L46.0819 32.1139ZM45.74 34.044H49.214V33.444H45.74V34.044ZM49.5135 33.727C49.4754 33.0541 49.302 32.4982 48.9522 32.1047L48.5038 32.5033C48.73 32.7578 48.8806 33.1619 48.9145 33.761L49.5135 33.727ZM48.9564 32.1095C48.6113 31.7044 48.1235 31.518 47.54 31.518V32.118C47.9885 32.118 48.2927 32.2556 48.4996 32.4985L48.9564 32.1095ZM46.0337 28.5147C45.887 28.7256 45.7323 28.8 45.56 28.8V29.4C45.9637 29.4 46.289 29.1984 46.5263 28.8573L46.0337 28.5147ZM45.56 28.8C45.4082 28.8 45.283 28.751 45.1701 28.6462L44.7619 29.0858C44.985 29.293 45.2558 29.4 45.56 29.4V28.8ZM45.1701 28.6462C45.0591 28.543 45.014 28.435 45.014 28.308H44.414C44.414 28.613 44.5369 28.877 44.7619 29.0858L45.1701 28.6462ZM45.014 28.308C45.014 28.1908 45.0525 28.0748 45.1479 27.9533L44.6761 27.5827C44.5075 27.7972 44.414 28.0412 44.414 28.308H45.014ZM45.1488 27.9522L46.6608 26.0082L46.1872 25.6398L44.6752 27.5838L45.1488 27.9522ZM46.6556 26.0147C46.8127 25.824 46.9424 25.7099 47.0432 25.6511L46.7408 25.1329C46.5536 25.2421 46.3713 25.416 46.1924 25.6333L46.6556 26.0147ZM47.0492 25.6475C47.1476 25.5869 47.282 25.548 47.468 25.548V24.948C47.198 24.948 46.9484 25.0051 46.7348 25.1365L47.0492 25.6475ZM47.468 25.548C47.6553 25.548 47.7783 25.5874 47.8596 25.6416L48.1924 25.1424C47.9857 25.0046 47.7367 24.948 47.468 24.948V25.548ZM47.8838 25.6561C47.9885 25.7126 48.1203 25.827 48.2752 26.0262L48.7488 25.6578C48.5677 25.425 48.3755 25.2394 48.1682 25.1279L47.8838 25.6561ZM48.276 26.0272L49.788 27.9532L50.26 27.5828L48.748 25.6568L48.276 26.0272ZM49.7881 27.9533C49.8866 28.0787 49.922 28.1892 49.922 28.29H50.522C50.522 28.0308 50.4254 27.7933 50.2599 27.5827L49.7881 27.9533ZM49.922 28.29C49.922 28.4109 49.8759 28.5267 49.7473 28.6467L50.1567 29.0853C50.3881 28.8693 50.522 28.6011 50.522 28.29H49.922ZM49.7479 28.6462C49.6316 28.7541 49.5113 28.8 49.376 28.8V29.4C49.6727 29.4 49.9364 29.2899 50.1561 29.0858L49.7479 28.6462ZM49.376 28.8C49.2037 28.8 49.049 28.7256 48.9023 28.5147L48.4097 28.8573C48.647 29.1984 48.9723 29.4 49.376 29.4V28.8ZM48.9048 28.5184L47.7168 26.7544L47.2192 27.0896L48.4072 28.8536L48.9048 28.5184ZM47.2192 26.7544L46.0312 28.5184L46.5288 28.8536L47.7168 27.0896L47.2192 26.7544Z" fill="#159CD6"/>
</svg>
